<?xml version="1.0" standalone="no"?>
<!DOCTYPE svg PUBLIC "-//W3C//DTD SVG 20010904//EN"
 "http://www.w3.org/TR/2001/REC-SVG-20010904/DTD/svg10.dtd">
<svg version="1.0" xmlns="http://www.w3.org/2000/svg"
 width="512.000000pt" height="512.000000pt" viewBox="0 0 512.000000 512.000000"
 preserveAspectRatio="xMidYMid meet">

<g transform="translate(0.000000,512.000000) scale(0.100000,-0.100000)"
fill="#000000" stroke="none">
<path d="M2440 5076 c-159 -49 -726 -300 -1485 -659 -297 -140 -569 -267 -605
-282 -96 -40 -231 -113 -262 -142 -15 -14 -40 -51 -55 -82 l-28 -56 0 -1285 0
-1285 34 -65 c53 -103 94 -138 231 -200 41 -18 350 -162 685 -320 818 -385
1398 -640 1524 -670 67 -16 151 -8 239 23 188 67 714 302 1447 647 336 158
644 302 685 320 137 62 178 97 231 200 l34 65 3 1260 3 1260 -22 68 c-14 43
-34 81 -58 107 -36 40 -151 105 -271 155 -36 15 -308 142 -605 282 -556 263
-819 383 -1105 505 -91 38 -199 85 -241 104 -86 38 -216 74 -269 73 -19 0 -69
-10 -110 -23z m231 -72 c62 -18 638 -272 989 -437 532 -248 800 -371 992 -452
308 -132 363 -165 370 -224 3 -21 -11 -29 -137 -83 -434 -187 -573 -251 -795
-368 -213 -111 -725 -363 -875 -429 -27 -12 -61 -31 -75 -42 l-25 -19 25 9
c129 48 478 203 900 401 534 250 983 451 997 446 17 -7 19 -576 3 -576 -6 0
-69 -35 -142 -77 -150 -88 -165 -108 -154 -199 5 -41 2 -54 -12 -67 -22 -20
-205 -117 -220 -117 -7 0 -12 9 -12 21 0 29 -18 59 -35 59 -15 0 -277 -130
-309 -153 -13 -9 -19 -33 -24 -87 l-7 -75 -67 -36 c-37 -21 -83 -47 -103 -59
l-35 -22 -1 114 c0 62 -3 130 -7 150 l-7 37 -100 -50 c-177 -91 -189 -103
-197 -207 -3 -31 -8 -35 -82 -68 -44 -19 -88 -34 -97 -34 -19 0 -27 -19 -31
-80 -3 -34 -6 -37 -118 -92 -63 -32 -116 -58 -117 -58 -2 0 -3 37 -3 83 0 116
-4 119 -87 69 -37 -23 -108 -60 -158 -83 -49 -22 -92 -43 -94 -45 -4 -4 -6
-33 -9 -136 l-2 -67 -110 -60 c-61 -34 -114 -61 -119 -61 -14 0 -21 27 -22 88
-1 31 -4 44 -6 27 -2 -16 -6 -49 -9 -73 l-5 -43 -35 22 c-19 11 -73 42 -121
68 l-86 47 -2 107 c-2 120 -4 125 -86 178 -70 45 -311 145 -397 166 -84 19
-92 15 -92 -49 0 -20 -5 -40 -10 -43 -6 -4 -38 9 -73 28 -74 42 -183 87 -209
87 -14 0 -18 -8 -18 -39 l0 -40 -55 29 c-30 16 -86 39 -123 51 l-69 22 -6 144
c-4 79 -11 151 -16 161 -5 9 -83 49 -173 88 -239 105 -228 101 -244 79 -8 -11
-14 -44 -14 -77 0 -43 -4 -58 -14 -58 -8 0 -65 25 -128 55 -62 31 -130 58
-150 62 -35 5 -39 3 -51 -25 l-13 -31 -61 28 c-33 16 -64 35 -69 42 -4 7 -6
56 -5 110 l2 97 -73 44 -73 44 -3 287 c-1 187 1 287 8 287 5 0 49 -22 97 -50
48 -27 91 -50 95 -50 10 0 260 -107 372 -159 205 -97 480 -217 756 -331 162
-67 161 -66 120 -38 -59 41 -159 93 -285 148 -66 29 -280 131 -475 227 -195
97 -404 197 -465 223 -197 85 -207 91 -200 120 16 64 64 93 376 226 228 97
460 202 779 354 412 195 1130 516 1200 536 63 17 157 17 221 -2z m2370 -1971
c1 -82 1 -503 0 -937 l-1 -789 -30 -52 c-31 -54 -91 -114 -153 -151 -19 -12
-108 -52 -198 -89 -209 -86 -302 -128 -464 -205 -541 -259 -1445 -667 -1537
-695 -28 -8 -54 -13 -57 -10 -2 3 -6 270 -7 593 -2 323 -6 697 -9 832 l-6 245
123 60 c68 33 134 62 148 65 l25 5 -3 111 -4 111 29 11 c15 5 37 14 48 18 19
7 19 7 3 -9 -10 -10 -22 -34 -28 -55 -13 -48 -13 -242 0 -242 5 0 17 12 27 27
14 21 17 44 15 122 l-3 96 33 13 c19 6 37 12 40 12 3 0 8 -25 10 -56 3 -39 11
-62 26 -76 19 -20 25 -21 70 -10 27 6 97 32 156 58 l106 46 0 57 c0 48 4 61
24 81 15 14 26 36 28 58 3 34 5 36 106 80 l102 45 0 71 0 71 98 50 c53 27 100
51 105 53 4 2 7 -52 7 -120 0 -67 4 -129 9 -137 12 -18 61 -2 161 51 126 68
130 72 131 131 2 90 4 93 112 142 53 24 111 51 129 59 17 9 33 16 34 16 2 0
11 -16 19 -36 13 -32 18 -36 42 -32 16 3 36 9 46 13 10 4 17 3 17 -3 0 -6 -36
-30 -81 -53 -71 -37 -79 -44 -66 -57 29 -28 87 -18 202 36 242 115 262 130
257 210 -4 84 6 128 33 140 29 14 33 46 9 80 -9 13 -14 25 -13 26 11 9 115 66
122 66 4 0 8 -66 8 -147z m-4094 -328 c83 -41 83 -41 83 -211 0 -78 4 -117 13
-125 6 -6 39 -25 72 -42 l60 -32 5 -337 c3 -185 7 -338 10 -340 29 -23 525
-278 541 -278 15 0 12 685 -3 698 -7 5 -60 34 -118 62 -58 29 -106 54 -108 55
-1 1 3 17 9 36 6 19 12 39 14 46 3 8 50 -7 140 -43 148 -59 169 -60 181 -6 10
48 13 52 37 52 14 0 73 -20 133 -44 60 -24 117 -46 127 -50 27 -9 37 -49 37
-155 l0 -98 36 -35 c21 -21 92 -64 174 -104 l139 -69 1 -487 c0 -269 -2 -488
-4 -488 -2 0 -27 11 -54 25 -83 42 -82 43 -81 -97 2 -176 2 -177 77 -216 l62
-33 0 -140 c0 -105 -3 -139 -12 -139 -54 1 -182 52 -555 222 l-133 61 0 104
c0 76 -4 114 -16 139 -16 33 -70 72 -172 123 -42 21 -43 22 -24 39 18 15 21
35 26 175 5 143 4 159 -13 176 -27 27 -259 143 -279 139 -15 -3 -17 -19 -13
-173 4 -181 9 -202 57 -224 23 -10 24 -13 10 -27 -13 -12 -16 -40 -16 -140 0
-68 -4 -124 -8 -124 -5 0 -105 46 -223 101 -313 148 -434 203 -629 285 -96 40
-200 86 -230 102 l-55 29 -8 169 c-11 227 -12 233 -92 286 l-65 42 0 489 c0
462 1 489 18 483 32 -12 337 -178 351 -191 9 -9 15 -48 18 -121 6 -132 15
-165 51 -186 64 -38 265 -119 274 -110 12 12 22 197 14 266 -9 68 -15 74 -128
136 l-83 45 -3 133 c-1 72 0 132 3 132 3 0 27 -11 53 -24 26 -13 76 -30 110
-36 77 -16 94 -6 92 54 -1 23 -1 44 -1 49 2 14 29 7 98 -28z"/>
<path d="M4155 2481 c-63 -43 -122 -107 -111 -119 7 -6 142 67 160 87 18 20
39 81 28 81 -4 0 -38 -22 -77 -49z"/>
<path d="M4575 2209 c-160 -71 -214 -99 -219 -117 -11 -36 -16 -221 -10 -320
l7 -103 41 7 c23 3 107 40 189 80 l147 74 0 210 0 210 -32 -1 c-18 0 -73 -18
-123 -40z"/>
<path d="M4135 1457 c-147 -79 -156 -91 -154 -217 1 -98 8 -114 49 -118 28 -2
55 10 130 56 l95 59 3 84 c1 46 -1 102 -6 124 -10 53 -37 55 -117 12z"/>
<path d="M690 1588 c-1 -2 -3 -62 -5 -134 l-4 -132 79 -43 79 -44 3 -65 3 -65
60 -32 c33 -18 71 -32 85 -30 23 2 25 7 28 57 5 91 -3 114 -53 146 l-45 28 0
103 0 103 -38 24 c-85 53 -190 99 -192 84z"/>
<path d="M1913 1443 c-10 -3 -13 -47 -13 -167 0 -193 -1 -191 118 -259 169
-97 223 -116 236 -81 12 32 7 339 -6 356 -18 21 -129 80 -233 123 -47 19 -86
35 -88 34 -1 0 -8 -3 -14 -6z"/>
</g>
</svg>
